ISO-10303-21;
HEADER;
FILE_DESCRIPTION (( 'STEP AP214' ),
    '1' );
FILE_NAME ('BOX_5x5x10__.STEP',
    '2026-08-04T00:09:21',
    ( '' ),
    ( '' ),
    'SwSTEP 2.0',
    'SolidWorks 2025',
    '' );
FILE_SCHEMA (( 'AUTOMOTIVE_DESIGN' ));
ENDSEC;

DATA;
#1 = AXIS2_PLACEMENT_3D ( 'NONE', #133, #146, #51 ) ;
#2 = VECTOR ( 'NONE', #53, 1000.000000000000000 ) ;
#3 = EDGE_LOOP ( 'NONE', ( #33, #174, #131, #91 ) ) ;
#4 = ADVANCED_FACE ( 'NONE', ( #22 ), #63, .F. ) ;
#5 = ORIENTED_EDGE ( 'NONE', *, *, #113, .F. ) ;
#6 = DIRECTION ( 'NONE',  ( 0.000000000000000000, -0.000000000000000000, 1.000000000000000000 ) ) ;
#7 = SURFACE_SIDE_STYLE ('',( #127 ) ) ;
#8 = ADVANCED_FACE ( 'NONE', ( #120 ), #89, .F. ) ;
#9 =( LENGTH_UNIT ( ) NAMED_UNIT ( * ) SI_UNIT ( .MILLI., .METRE. ) );
#10 = CARTESIAN_POINT ( 'NONE',  ( -25.00000000000001421, 0.000000000000000000, -25.00000000000000711 ) ) ;
#11 = CARTESIAN_POINT ( 'NONE',  ( 24.99999999999998934, 100.0000000000000000, -25.00000000000000711 ) ) ;
#12 = AXIS2_PLACEMENT_3D ( 'NONE', #49, #144, #6 ) ;
#13 = CARTESIAN_POINT ( 'NONE',  ( 0.000000000000000000, 100.0000000000000000, 0.000000000000000000 ) ) ;
#14 = PRODUCT_DEFINITION_CONTEXT ( 'detailed design', #118, 'design' ) ;
#15 = DIRECTION ( 'NONE',  ( 0.000000000000000000, 0.000000000000000000, 1.000000000000000000 ) ) ;
#16 = VECTOR ( 'NONE', #39, 1000.000000000000000 ) ;
#17 = PRODUCT_CONTEXT ( 'NONE', #28, 'mechanical' ) ;
#18 = EDGE_CURVE ( 'NONE', #121, #76, #37, .T. ) ;
#19 = ORIENTED_EDGE ( 'NONE', *, *, #184, .F. ) ;
#20 = ORIENTED_EDGE ( 'NONE', *, *, #68, .F. ) ;
#21 = EDGE_CURVE ( 'NONE', #74, #187, #23, .T. ) ;
#22 = FACE_OUTER_BOUND ( 'NONE', #162, .T. ) ;
#23 = LINE ( 'NONE', #124, #166 ) ;
#24 = EDGE_LOOP ( 'NONE', ( #20, #88, #178, #19 ) ) ;
#25 = ORIENTED_EDGE ( 'NONE', *, *, #135, .T. ) ;
#26 = LINE ( 'NONE', #149, #44 ) ;
#27 = LINE ( 'NONE', #182, #168 ) ;
#28 = APPLICATION_CONTEXT ( 'automotive_design' ) ;
#29 = DIRECTION ( 'NONE',  ( 1.387778780781445676E-16, 0.000000000000000000, 1.000000000000000000 ) ) ;
#30 = CLOSED_SHELL ( 'NONE', ( #147, #71, #41, #4, #176, #8 ) ) ;
#31 = PLANE ( 'NONE',  #34 ) ;
#32 = APPLICATION_PROTOCOL_DEFINITION ( 'draft international standard', 'automotive_design', 1998, #118 ) ;
#33 = ORIENTED_EDGE ( 'NONE', *, *, #68, .T. ) ;
#34 = AXIS2_PLACEMENT_3D ( 'NONE', #141, #80, #92 ) ;
#35 = PLANE ( 'NONE',  #1 ) ;
#36 = DIRECTION ( 'NONE',  ( 0.000000000000000000, 0.000000000000000000, -1.000000000000000000 ) ) ;
#37 = LINE ( 'NONE', #73, #145 ) ;
#38 = CARTESIAN_POINT ( 'NONE',  ( -25.00000000000000711, 100.0000000000000000, 24.99999999999999289 ) ) ;
#39 = DIRECTION ( 'NONE',  ( -0.000000000000000000, -0.000000000000000000, -1.000000000000000000 ) ) ;
#40 =( NAMED_UNIT ( * ) PLANE_ANGLE_UNIT ( ) SI_UNIT ( $, .RADIAN. ) );
#41 = ADVANCED_FACE ( 'NONE', ( #157 ), #35, .F. ) ;
#42 = CARTESIAN_POINT ( 'NONE',  ( -25.00000000000001421, 100.0000000000000000, -25.00000000000000711 ) ) ;
#43 = LINE ( 'NONE', #152, #2 ) ;
#44 = VECTOR ( 'NONE', #66, 1000.000000000000000 ) ;
#45 =( NAMED_UNIT ( * ) SI_UNIT ( $, .STERADIAN. ) SOLID_ANGLE_UNIT ( ) );
#46 = EDGE_CURVE ( 'NONE', #74, #121, #175, .T. ) ;
#47 = EDGE_CURVE ( 'NONE', #158, #160, #95, .T. ) ;
#48 =( NAMED_UNIT ( * ) PLANE_ANGLE_UNIT ( ) SI_UNIT ( $, .RADIAN. ) );
#49 = CARTESIAN_POINT ( 'NONE',  ( 0.000000000000000000, 0.000000000000000000, 0.000000000000000000 ) ) ;
#50 = ORIENTED_EDGE ( 'NONE', *, *, #61, .T. ) ;
#51 = DIRECTION ( 'NONE',  ( -1.387778780781445676E-16, 0.000000000000000000, -1.000000000000000000 ) ) ;
#52 = ORIENTED_EDGE ( 'NONE', *, *, #154, .T. ) ;
#53 = DIRECTION ( 'NONE',  ( -1.000000000000000000, -0.000000000000000000, -0.000000000000000000 ) ) ;
#54 = DIRECTION ( 'NONE',  ( 0.000000000000000000, 0.000000000000000000, 1.000000000000000000 ) ) ;
#55 = CARTESIAN_POINT ( 'NONE',  ( -25.00000000000001421, 0.000000000000000000, -25.00000000000000711 ) ) ;
#56 =( NAMED_UNIT ( * ) SI_UNIT ( $, .STERADIAN. ) SOLID_ANGLE_UNIT ( ) );
#57 = LINE ( 'NONE', #151, #62 ) ;
#58 = CARTESIAN_POINT ( 'NONE',  ( 24.99999999999998934, 0.000000000000000000, 24.99999999999999289 ) ) ;
#59 = DIRECTION ( 'NONE',  ( -1.000000000000000000, -0.000000000000000000, -0.000000000000000000 ) ) ;
#60 = EDGE_LOOP ( 'NONE', ( #75, #50, #153, #25 ) ) ;
#61 = EDGE_CURVE ( 'NONE', #121, #158, #43, .T. ) ;
#62 = VECTOR ( 'NONE', #93, 1000.000000000000000 ) ;
#63 = PLANE ( 'NONE',  #171 ) ;
#64 = LINE ( 'NONE', #129, #16 ) ;
#65 = DIRECTION ( 'NONE',  ( 0.000000000000000000, 1.000000000000000000, 0.000000000000000000 ) ) ;
#66 = DIRECTION ( 'NONE',  ( 1.000000000000000000, 0.000000000000000000, 0.000000000000000000 ) ) ;
#67 = VECTOR ( 'NONE', #29, 1000.000000000000000 ) ;
#68 = EDGE_CURVE ( 'NONE', #187, #76, #64, .T. ) ;
#69 = ORIENTED_EDGE ( 'NONE', *, *, #61, .F. ) ;
#70 = COLOUR_RGB ( '',0.7921568627450980005, 0.8196078431372548767, 0.9333333333333333481 ) ;
#71 = ADVANCED_FACE ( 'NONE', ( #77 ), #31, .F. ) ;
#72 = AXIS2_PLACEMENT_3D ( 'NONE', #13, #65, #150 ) ;
#73 = CARTESIAN_POINT ( 'NONE',  ( 24.99999999999998934, 100.0000000000000000, -25.00000000000000711 ) ) ;
#74 = VERTEX_POINT ( 'NONE', #130 ) ;
#75 = ORIENTED_EDGE ( 'NONE', *, *, #46, .T. ) ;
#76 = VERTEX_POINT ( 'NONE', #137 ) ;
#77 = FACE_OUTER_BOUND ( 'NONE', #116, .T. ) ;
#78 = DIRECTION ( 'NONE',  ( -1.000000000000000000, 0.000000000000000000, 0.000000000000000000 ) ) ;
#79 = VECTOR ( 'NONE', #185, 1000.000000000000000 ) ;
#80 = DIRECTION ( 'NONE',  ( 0.000000000000000000, 0.000000000000000000, 1.000000000000000000 ) ) ;
#81 = PLANE ( 'NONE',  #72 ) ;
#82 = FILL_AREA_STYLE ('',( #140 ) ) ;
#83 = CARTESIAN_POINT ( 'NONE',  ( 0.000000000000000000, 0.000000000000000000, 0.000000000000000000 ) ) ;
#84 = MANIFOLD_SOLID_BREP ( 'Boss-Extrude1', #30 ) ;
#85 = CARTESIAN_POINT ( 'NONE',  ( -25.00000000000001421, 0.000000000000000000, -25.00000000000000711 ) ) ;
#86 = PRESENTATION_LAYER_ASSIGNMENT (  '', '', ( #122 ) ) ;
#87 = AXIS2_PLACEMENT_3D ( 'NONE', #83, #15, #97 ) ;
#88 = ORIENTED_EDGE ( 'NONE', *, *, #111, .F. ) ;
#89 = PLANE ( 'NONE',  #12 ) ;
#90 = DIRECTION ( 'NONE',  ( -0.000000000000000000, -0.000000000000000000, -1.000000000000000000 ) ) ;
#91 = ORIENTED_EDGE ( 'NONE', *, *, #21, .T. ) ;
#92 = DIRECTION ( 'NONE',  ( 1.000000000000000000, 0.000000000000000000, -0.000000000000000000 ) ) ;
#93 = DIRECTION ( 'NONE',  ( 1.000000000000000000, 0.000000000000000000, 0.000000000000000000 ) ) ;
#94 = PLANE ( 'NONE',  #164 ) ;
#95 = LINE ( 'NONE', #163, #96 ) ;
#96 = VECTOR ( 'NONE', #180, 1000.000000000000000 ) ;
#97 = DIRECTION ( 'NONE',  ( 1.000000000000000000, 0.000000000000000000, 0.000000000000000000 ) ) ;
#98 = APPLICATION_PROTOCOL_DEFINITION ( 'draft international standard', 'automotive_design', 1998, #28 ) ;
#99 = PRODUCT_DEFINITION ( 'UNKNOWN', '', #100, #14 ) ;
#100 = PRODUCT_DEFINITION_FORMATION_WITH_SPECIFIED_SOURCE ( 'ANY', '', #106, .NOT_KNOWN. ) ;
#101 = DIRECTION ( 'NONE',  ( -0.000000000000000000, -1.000000000000000000, -0.000000000000000000 ) ) ;
#102 = ORIENTED_EDGE ( 'NONE', *, *, #18, .T. ) ;
#103 = ADVANCED_BREP_SHAPE_REPRESENTATION ( 'BOX_5x5x10__', ( #84, #87 ), #159 ) ;
#104 = CARTESIAN_POINT ( 'NONE',  ( 24.99999999999998934, 100.0000000000000000, -25.00000000000000711 ) ) ;
#105 = VECTOR ( 'NONE', #59, 1000.000000000000000 ) ;
#106 = PRODUCT ( 'BOX_5x5x10__', 'BOX_5x5x10__', '', ( #17 ) ) ;
#107 = ORIENTED_EDGE ( 'NONE', *, *, #21, .F. ) ;
#108 = VECTOR ( 'NONE', #90, 1000.000000000000000 ) ;
#109 = ORIENTED_EDGE ( 'NONE', *, *, #113, .T. ) ;
#110 = FACE_OUTER_BOUND ( 'NONE', #3, .T. ) ;
#111 = EDGE_CURVE ( 'NONE', #148, #187, #26, .T. ) ;
#112 = CARTESIAN_POINT ( 'NONE',  ( -25.00000000000000711, 0.000000000000000000, 24.99999999999999289 ) ) ;
#113 = EDGE_CURVE ( 'NONE', #143, #148, #126, .T. ) ;
#114 = CARTESIAN_POINT ( 'NONE',  ( -25.00000000000000711, 100.0000000000000000, 24.99999999999999289 ) ) ;
#115 = CARTESIAN_POINT ( 'NONE',  ( -25.00000000000000711, 100.0000000000000000, 24.99999999999999289 ) ) ;
#116 = EDGE_LOOP ( 'NONE', ( #125, #136, #69, #102 ) ) ;
#117 = ORIENTED_EDGE ( 'NONE', *, *, #111, .T. ) ;
#118 = APPLICATION_CONTEXT ( 'automotive_design' ) ;
#119 =( LENGTH_UNIT ( ) NAMED_UNIT ( * ) SI_UNIT ( .MILLI., .METRE. ) );
#120 = FACE_OUTER_BOUND ( 'NONE', #24, .T. ) ;
#121 = VERTEX_POINT ( 'NONE', #11 ) ;
#122 = STYLED_ITEM ( 'NONE', ( #169 ), #84 ) ;
#123 = DIRECTION ( 'NONE',  ( -0.000000000000000000, -1.000000000000000000, -0.000000000000000000 ) ) ;
#124 = CARTESIAN_POINT ( 'NONE',  ( 24.99999999999998934, 100.0000000000000000, 24.99999999999999289 ) ) ;
#125 = ORIENTED_EDGE ( 'NONE', *, *, #184, .T. ) ;
#126 = LINE ( 'NONE', #114, #79 ) ;
#127 = SURFACE_STYLE_FILL_AREA ( #82 ) ;
#128 = PRODUCT_RELATED_PRODUCT_CATEGORY ( 'part', '', ( #106 ) ) ;
#129 = CARTESIAN_POINT ( 'NONE',  ( 24.99999999999998934, 0.000000000000000000, -25.00000000000000711 ) ) ;
#130 = CARTESIAN_POINT ( 'NONE',  ( 24.99999999999998934, 100.0000000000000000, 24.99999999999999289 ) ) ;
#131 = ORIENTED_EDGE ( 'NONE', *, *, #46, .F. ) ;
#132 = PRODUCT_DEFINITION_SHAPE ( 'NONE', 'NONE',  #99 ) ;
#133 = CARTESIAN_POINT ( 'NONE',  ( -25.00000000000001421, 100.0000000000000000, -25.00000000000000711 ) ) ;
#134 = ORIENTED_EDGE ( 'NONE', *, *, #138, .F. ) ;
#135 = EDGE_CURVE ( 'NONE', #143, #74, #57, .T. ) ;
#136 = ORIENTED_EDGE ( 'NONE', *, *, #47, .F. ) ;
#137 = CARTESIAN_POINT ( 'NONE',  ( 24.99999999999998934, 0.000000000000000000, -25.00000000000000711 ) ) ;
#138 = EDGE_CURVE ( 'NONE', #158, #143, #27, .T. ) ;
#139 = LINE ( 'NONE', #10, #67 ) ;
#140 = FILL_AREA_STYLE_COLOUR ( '', #70 ) ;
#141 = CARTESIAN_POINT ( 'NONE',  ( -25.00000000000001421, 100.0000000000000000, -25.00000000000000711 ) ) ;
#142 = UNCERTAINTY_MEASURE_WITH_UNIT (LENGTH_MEASURE( 1.000000000000000082E-05 ), #119, 'distance_accuracy_value', 'NONE');
#143 = VERTEX_POINT ( 'NONE', #115 ) ;
#144 = DIRECTION ( 'NONE',  ( 0.000000000000000000, 1.000000000000000000, 0.000000000000000000 ) ) ;
#145 = VECTOR ( 'NONE', #101, 1000.000000000000000 ) ;
#146 = DIRECTION ( 'NONE',  ( 1.000000000000000000, 0.000000000000000000, -1.387778780781445676E-16 ) ) ;
#147 = ADVANCED_FACE ( 'NONE', ( #110 ), #94, .F. ) ;
#148 = VERTEX_POINT ( 'NONE', #112 ) ;
#149 = CARTESIAN_POINT ( 'NONE',  ( -25.00000000000000711, 0.000000000000000000, 24.99999999999999289 ) ) ;
#150 = DIRECTION ( 'NONE',  ( 0.000000000000000000, -0.000000000000000000, 1.000000000000000000 ) ) ;
#151 = CARTESIAN_POINT ( 'NONE',  ( -25.00000000000000711, 100.0000000000000000, 24.99999999999999289 ) ) ;
#152 = CARTESIAN_POINT ( 'NONE',  ( -25.00000000000001421, 100.0000000000000000, -25.00000000000000711 ) ) ;
#153 = ORIENTED_EDGE ( 'NONE', *, *, #138, .T. ) ;
#154 = EDGE_CURVE ( 'NONE', #160, #148, #139, .T. ) ;
#155 =( GEOMETRIC_REPRESENTATION_CONTEXT ( 3 ) GLOBAL_UNCERTAINTY_ASSIGNED_CONTEXT ( ( #170 ) ) GLOBAL_UNIT_ASSIGNED_CONTEXT ( ( #9, #40, #56 ) ) REPRESENTATION_CONTEXT ( 'NONE', 'WORKASPACE' ) );
#156 = ORIENTED_EDGE ( 'NONE', *, *, #135, .F. ) ;
#157 = FACE_OUTER_BOUND ( 'NONE', #173, .T. ) ;
#158 = VERTEX_POINT ( 'NONE', #42 ) ;
#159 =( GEOMETRIC_REPRESENTATION_CONTEXT ( 3 ) GLOBAL_UNCERTAINTY_ASSIGNED_CONTEXT ( ( #142 ) ) GLOBAL_UNIT_ASSIGNED_CONTEXT ( ( #119, #48, #45 ) ) REPRESENTATION_CONTEXT ( 'NONE', 'WORKASPACE' ) );
#160 = VERTEX_POINT ( 'NONE', #55 ) ;
#161 = DIRECTION ( 'NONE',  ( -1.000000000000000000, 0.000000000000000000, -0.000000000000000000 ) ) ;
#162 = EDGE_LOOP ( 'NONE', ( #117, #107, #156, #109 ) ) ;
#163 = CARTESIAN_POINT ( 'NONE',  ( -25.00000000000001421, 100.0000000000000000, -25.00000000000000711 ) ) ;
#164 = AXIS2_PLACEMENT_3D ( 'NONE', #181, #78, #54 ) ;
#165 = SURFACE_STYLE_USAGE ( .BOTH. , #7 ) ;
#166 = VECTOR ( 'NONE', #123, 1000.000000000000000 ) ;
#167 = DIRECTION ( 'NONE',  ( 1.387778780781445676E-16, 0.000000000000000000, 1.000000000000000000 ) ) ;
#168 = VECTOR ( 'NONE', #167, 1000.000000000000000 ) ;
#169 = PRESENTATION_STYLE_ASSIGNMENT (( #165 ) ) ;
#170 = UNCERTAINTY_MEASURE_WITH_UNIT (LENGTH_MEASURE( 1.000000000000000082E-05 ), #9, 'distance_accuracy_value', 'NONE');
#171 = AXIS2_PLACEMENT_3D ( 'NONE', #38, #36, #161 ) ;
#172 = SHAPE_DEFINITION_REPRESENTATION ( #132, #103 ) ;
#173 = EDGE_LOOP ( 'NONE', ( #52, #5, #134, #177 ) ) ;
#174 = ORIENTED_EDGE ( 'NONE', *, *, #18, .F. ) ;
#175 = LINE ( 'NONE', #104, #108 ) ;
#176 = ADVANCED_FACE ( 'NONE', ( #183 ), #81, .T. ) ;
#177 = ORIENTED_EDGE ( 'NONE', *, *, #47, .T. ) ;
#178 = ORIENTED_EDGE ( 'NONE', *, *, #154, .F. ) ;
#179 = MECHANICAL_DESIGN_GEOMETRIC_PRESENTATION_REPRESENTATION (  '', ( #122 ), #155 ) ;
#180 = DIRECTION ( 'NONE',  ( -0.000000000000000000, -1.000000000000000000, -0.000000000000000000 ) ) ;
#181 = CARTESIAN_POINT ( 'NONE',  ( 24.99999999999998934, 100.0000000000000000, -25.00000000000000711 ) ) ;
#182 = CARTESIAN_POINT ( 'NONE',  ( -25.00000000000001421, 100.0000000000000000, -25.00000000000000711 ) ) ;
#183 = FACE_OUTER_BOUND ( 'NONE', #60, .T. ) ;
#184 = EDGE_CURVE ( 'NONE', #76, #160, #186, .T. ) ;
#185 = DIRECTION ( 'NONE',  ( -0.000000000000000000, -1.000000000000000000, -0.000000000000000000 ) ) ;
#186 = LINE ( 'NONE', #85, #105 ) ;
#187 = VERTEX_POINT ( 'NONE', #58 ) ;
ENDSEC;
END-ISO-10303-21;
